<svg width="414" height="408" viewBox="0 0 414 408" fill="none" xmlns="http://www.w3.org/2000/svg">
<path fill-rule="evenodd" clip-rule="evenodd" d="M207.512 -12V20.9872H216.004V149.355H227.157V109.823H233.031V100.274L245.88 109.823H249.027V86.0749L264.401 51.6551L279.774 86.0749V166.834H286.991V182.527H297.639V118.477H306.464L306.097 91.9013H316.309V84.2898H326.657L328.249 38.2617L329.841 84.2898H331.831V91.9013H334.516L333.532 163.074H335.439V131.674L356.833 109.823V149.355H378.229V118.477H391.436V100.274L414.059 127.899V100.274L444.392 137.313V408H421.769H414.059H392.4H391.436H378.229H356.833H335.439H331.004H311.811H309.61H298.877H297.639H279.774H268.13H249.027H227.157H216.004H197.1H189.019H170.064H164.924H147.518H138.041H122.731H117.185H109.289H95.8479H92.3969H78.9556H71.702H65.5135H41.37H31.3668H18.3565H5.34454H-4.67221H-7.6658H-22.1978H-26.0669H-39.16V144.194H-28.8567L-29.579 91.9013H-7.6658V16.2047H5.34454V32.2954H18.3565V47.0274H31.3668V122.979H41.37V87.6664H44.9317V83.7718H68.1395V87.6664H71.702V161.301H78.9556V66.6655H82.519V62.771H105.726V66.6655H109.289V121.161H117.185V87.6664H120.747V83.7718H143.954V87.6664H147.518V100.274L154.965 114.145V137.401H164.924V122.979H170.064V87.6664H189.019V66.7597L197.1 54.8353V20.9872H205.592V-12H207.512Z" fill="white" fill-opacity="0.2"/>
</svg>
