<svg width="414" height="408" viewBox="0 0 414 408" fill="none" xmlns="http://www.w3.org/2000/svg">
<path fill-rule="evenodd" clip-rule="evenodd" d="M207.512 -12V20.9872H216.004V149.355H227.157V109.823H233.031V100.274L245.88 109.823H249.027V86.0749L264.401 51.6551L279.774 86.0749V166.834H286.991V182.527H297.639V118.477H306.464L306.097 91.9013H316.309V84.2898H326.657L328.249 38.2617L329.841 84.2898H331.831V91.9013H334.516L333.532 163.074H335.439V131.674L356.833 109.823V149.355H378.229V118.477H391.436V100.274L414.059 127.899V100.274L444.392 137.313V408H421.769H414.059H392.4H391.436H378.229H356.833H335.439H331.004H311.811H309.61H298.877H297.639H279.774H268.13H249.027H227.157H216.004H197.1H189.019H170.064H164.924H147.518H138.041H122.731H117.185H109.289H95.8479H92.3969H78.9556H71.702H65.5135H41.37H31.3668H18.3565H5.34454H-4.67221H-7.6658H-22.1978H-26.0669H-39.16V144.194H-28.8567L-29.579 91.9013H-7.6658V16.2047H5.34454V32.2954H18.3565V47.0274H31.3668V122.979H41.37V87.6664H44.9317V83.7718H68.1395V87.6664H71.702V161.301H78.9556V66.6655H82.519V62.771H105.726V66.6655H109.289V121.161H117.185V87.6664H120.747V83.7718H143.954V87.6664H147.518V100.274L154.965 114.145V137.401H164.924V122.979H170.064V87.6664H189.019V66.7597L197.1 54.8353V20.9872H205.592V-12H207.512Z" fill="white" fill-opacity="0.2"/>
<path fill-rule="evenodd" clip-rule="evenodd" d="M276.069 135.656V157.046H270.388V240.285H262.927V214.651H258.998V208.459L250.403 214.651H248.297V199.252L238.013 176.933L227.729 199.252V251.619H222.901V261.795H215.778V220.262H209.875L210.121 203.03H203.289V198.094H196.367L195.302 168.248L194.237 198.094H192.906V203.03H191.109L191.768 249.181H190.492V228.82L176.18 214.651V240.285H161.868V220.262H153.033V208.459L137.899 226.372V208.459L117.608 232.477V408H132.741H137.899H152.388H153.033H161.868H176.18H190.492H193.459H206.298H207.771H214.95H215.778H227.729H235.518H248.297H262.927H270.388H283.034H288.44H301.12H304.558H316.201H322.541H332.783H336.493H341.775H350.767H353.075H362.067H366.919H371.059H387.21H393.901H402.604H411.309H418.009H420.012H429.733H432.321H441.08V236.938H434.188L434.671 203.03H420.012V153.945H411.309V164.379H402.604V173.932H393.901V223.182H387.21V200.284H384.827V197.758H369.302V200.284H366.919V248.031H362.067V186.666H359.683V184.141H344.159V186.666H341.775V222.003H336.493V200.284H334.11V197.758H318.586V200.284H316.201V208.459L311.22 217.453V232.533H304.558V223.182H301.12V200.284H288.44V186.727L283.034 178.995V157.046H277.353V135.656H276.069Z" fill="white" fill-opacity="0.2"/>
<path fill-rule="evenodd" clip-rule="evenodd" d="M-10.2337 135.656H-9.23831V157.046H-4.83725V178.995L-0.649155 186.727V200.284H9.17453V223.182H11.8382V232.533H16.9996V217.453L20.8591 208.459V200.284H22.7063V197.758H34.7336V200.284H36.58V222.003H40.672V186.666H42.5188V184.141H54.5461V186.666H56.3929V248.031H60.1521V200.284H61.9985V197.758H74.0262V200.284H75.8722V223.182H81.0564V173.932H87.7992V164.379H94.5429V153.945H101.286V203.03H112.643L112.268 236.938H117.608V408H-133V232.477L-117.28 208.459V226.372L-105.555 208.459V220.262H-98.7099V240.285H-87.6214V214.651L-76.5332 228.82V249.181H-75.5454L-76.0553 203.03H-74.6636V198.094H-73.6321L-72.8072 168.248L-71.982 198.094H-66.6193V203.03H-61.3265L-61.517 220.262H-56.9433V261.795H-51.4246V251.619H-47.6845V199.252L-39.7171 176.933L-31.7494 199.252V214.651H-30.1181L-23.4589 208.459V214.651H-20.4146V240.285H-14.6343V157.046H-10.2337V135.656Z" fill="white" fill-opacity="0.2"/>
</svg>
