<svg width="133" height="70" viewBox="0 0 133 70" fill="none" xmlns="http://www.w3.org/2000/svg">
<path d="M33.64 18.8C34.4667 18.96 35.08 19.24 35.48 19.64C35.9067 20.04 36.12 20.5067 36.12 21.04C36.12 21.92 35.8667 22.56 35.36 22.96C34.88 23.36 34.1067 23.52 33.04 23.44C30.64 23.2533 28.76 23.1333 27.4 23.08C26.0667 23 24.3067 22.9467 22.12 22.92C21.1333 27.8267 20.2267 32.76 19.4 37.72C19.1067 39.5333 18.8 41.64 18.48 44.04C18.16 46.4133 17.9467 48.3333 17.84 49.8C17.7867 50.5733 17.4667 51.1733 16.88 51.6C16.2933 52 15.5867 52.2 14.76 52.2C13.88 52.2 13.2 51.9867 12.72 51.56C12.24 51.1333 12 50.5733 12 49.88C12 49.24 12.0933 48.1867 12.28 46.72C12.4933 45.2267 12.7333 43.6667 13 42.04C13.2933 40.4133 13.52 39 13.68 37.8C13.9733 35.7733 14.3067 33.76 14.68 31.76C15.0533 29.76 15.4267 27.8667 15.8 26.08C15.88 25.68 15.9733 25.2267 16.08 24.72C16.1867 24.1867 16.3067 23.6 16.44 22.96C13.8267 23.04 11.7733 23.2533 10.28 23.6C8.78667 23.9467 7.72 24.44 7.08 25.08C6.46667 25.6933 6.16 26.4933 6.16 27.48C6.16 28.3867 6.42667 29.2533 6.96 30.08C7.06667 30.2667 7.12 30.4667 7.12 30.68C7.12 31.1867 6.81333 31.6667 6.2 32.12C5.61333 32.5467 5 32.76 4.36 32.76C3.90667 32.76 3.53333 32.6267 3.24 32.36C2.70667 31.9067 2.26667 31.2667 1.92 30.44C1.57333 29.5867 1.4 28.6267 1.4 27.56C1.4 25.2933 2.13333 23.48 3.6 22.12C5.09333 20.7333 7.34667 19.72 10.36 19.08C13.4 18.44 17.2933 18.12 22.04 18.12C24.9733 18.12 27.3067 18.1733 29.04 18.28C30.8 18.3867 32.3333 18.56 33.64 18.8ZM31.4397 52.2C30.4264 52.2 29.7064 51.6667 29.2797 50.6C28.8797 49.5333 28.6797 47.8267 28.6797 45.48C28.6797 42.0133 29.173 38.72 30.1597 35.6C30.3997 34.8267 30.7864 34.2667 31.3197 33.92C31.8797 33.5467 32.653 33.36 33.6397 33.36C34.173 33.36 34.5464 33.4267 34.7597 33.56C34.973 33.6933 35.0797 33.9467 35.0797 34.32C35.0797 34.7467 34.8797 35.7067 34.4797 37.2C34.213 38.2667 33.9997 39.2 33.8397 40C33.6797 40.8 33.5464 41.7867 33.4397 42.96C34.3197 40.6667 35.3064 38.8 36.3997 37.36C37.493 35.92 38.5597 34.8933 39.5997 34.28C40.6664 33.6667 41.6397 33.36 42.5197 33.36C44.253 33.36 45.1197 34.2267 45.1197 35.96C45.1197 36.3067 44.9997 37.1467 44.7597 38.48C44.5464 39.5467 44.4397 40.2133 44.4397 40.48C44.4397 41.4133 44.773 41.88 45.4397 41.88C46.1864 41.88 47.1464 41.2933 48.3197 40.12C48.6664 39.7733 49.0264 39.6 49.3997 39.6C49.7464 39.6 50.013 39.76 50.1997 40.08C50.413 40.3733 50.5197 40.7733 50.5197 41.28C50.5197 42.2667 50.253 43.04 49.7197 43.6C48.973 44.3733 48.093 45.04 47.0797 45.6C46.093 46.1333 45.0397 46.4 43.9197 46.4C42.5064 46.4 41.4264 46.04 40.6797 45.32C39.9597 44.6 39.5997 43.6267 39.5997 42.4C39.5997 42 39.6397 41.6 39.7197 41.2C39.773 40.6667 39.7997 40.3067 39.7997 40.12C39.7997 39.6933 39.653 39.48 39.3597 39.48C38.9597 39.48 38.4264 39.9333 37.7597 40.84C37.1197 41.72 36.4797 42.8933 35.8397 44.36C35.1997 45.8267 34.6797 47.3733 34.2797 49C33.9864 50.2533 33.6397 51.1067 33.2397 51.56C32.8664 51.9867 32.2664 52.2 31.4397 52.2ZM51.7228 52.2C50.0695 52.2 48.7495 51.6 47.7628 50.4C46.7761 49.2 46.2828 47.6267 46.2828 45.68C46.2828 43.5467 46.7761 41.5333 47.7628 39.64C48.7495 37.72 50.0561 36.1867 51.6828 35.04C53.3361 33.8667 55.0828 33.28 56.9228 33.28C57.5095 33.28 57.8961 33.4 58.0828 33.64C58.2961 33.8533 58.4695 34.2533 58.6028 34.84C59.1628 34.7333 59.7495 34.68 60.3628 34.68C61.6695 34.68 62.3228 35.1467 62.3228 36.08C62.3228 36.64 62.1228 37.9733 61.7228 40.08C61.1095 43.1467 60.8028 45.28 60.8028 46.48C60.8028 46.88 60.8961 47.2 61.0828 47.44C61.2961 47.68 61.5628 47.8 61.8828 47.8C62.3895 47.8 63.0028 47.48 63.7228 46.84C64.4428 46.1733 65.4161 45.1067 66.6428 43.64C66.9628 43.2667 67.3228 43.08 67.7228 43.08C68.0695 43.08 68.3361 43.24 68.5228 43.56C68.7361 43.88 68.8428 44.32 68.8428 44.88C68.8428 45.9467 68.5895 46.7733 68.0828 47.36C66.9895 48.72 65.8295 49.8667 64.6028 50.8C63.3761 51.7333 62.1895 52.2 61.0428 52.2C60.1628 52.2 59.3495 51.9067 58.6028 51.32C57.8828 50.7067 57.3361 49.88 56.9628 48.84C55.5761 51.08 53.8295 52.2 51.7228 52.2ZM53.1628 48.16C53.7495 48.16 54.3095 47.8133 54.8428 47.12C55.3761 46.4267 55.7628 45.5067 56.0028 44.36L57.4828 37C56.3628 37.0267 55.3228 37.4533 54.3628 38.28C53.4295 39.08 52.6828 40.1467 52.1228 41.48C51.5628 42.8133 51.2828 44.2267 51.2828 45.72C51.2828 46.5467 51.4428 47.16 51.7628 47.56C52.1095 47.96 52.5761 48.16 53.1628 48.16ZM85.7825 39.84C85.8625 39.8133 85.9958 39.8 86.1825 39.8C86.5825 39.8 86.8892 39.9333 87.1025 40.2C87.3158 40.4667 87.4225 40.8267 87.4225 41.28C87.4225 42.1067 87.2625 42.76 86.9425 43.24C86.6225 43.6933 86.1425 44.0267 85.5025 44.24C84.2758 44.64 82.9692 44.84 81.5825 44.84C80.4092 44.84 79.3025 44.68 78.2625 44.36C77.4892 45.6133 76.6358 46.9067 75.7025 48.24C74.6358 49.76 73.7158 50.8 72.9425 51.36C72.1692 51.92 71.2892 52.2 70.3025 52.2C69.2092 52.2 68.3425 51.7733 67.7025 50.92C67.0892 50.0667 66.7025 48.72 66.5425 46.88C66.2225 43.1467 66.0625 39.88 66.0625 37.08V35.68C66.0892 34.8 66.3292 34.1867 66.7825 33.84C67.2358 33.4933 67.9158 33.32 68.8225 33.32C69.5158 33.32 70.0225 33.48 70.3425 33.8C70.6892 34.0933 70.8625 34.6 70.8625 35.32C70.8625 38.3867 71.0492 42.3733 71.4225 47.28C73.0225 44.9067 74.2225 43.0133 75.0225 41.6C74.6225 40.8267 74.4225 39.9067 74.4225 38.84C74.4225 37.9333 74.6225 37.0533 75.0225 36.2C75.4225 35.3467 75.9692 34.6533 76.6625 34.12C77.3558 33.5867 78.1425 33.32 79.0225 33.32C79.7958 33.32 80.4225 33.6 80.9025 34.16C81.3825 34.6933 81.6225 35.48 81.6225 36.52C81.6225 37.72 81.3025 39.0933 80.6625 40.64C81.6758 40.5867 83.0225 40.3867 84.7025 40.04L85.7825 39.84ZM101.791 43.08C102.138 43.08 102.405 43.24 102.591 43.56C102.805 43.88 102.911 44.32 102.911 44.88C102.911 45.9467 102.658 46.7733 102.151 47.36C101.165 48.56 99.7646 49.6667 97.9513 50.68C96.1646 51.6933 94.2446 52.2 92.1913 52.2C89.3913 52.2 87.2179 51.44 85.6713 49.92C84.1246 48.4 83.3512 46.32 83.3512 43.68C83.3512 41.84 83.7379 40.1333 84.5113 38.56C85.2846 36.96 86.3513 35.6933 87.7113 34.76C89.0979 33.8267 90.6579 33.36 92.3913 33.36C93.9379 33.36 95.1779 33.8267 96.1113 34.76C97.0446 35.6667 97.5113 36.9067 97.5113 38.48C97.5113 40.32 96.8446 41.9067 95.5113 43.24C94.2046 44.5467 91.9779 45.5867 88.8313 46.36C89.4979 47.5867 90.7646 48.2 92.6313 48.2C93.8313 48.2 95.1913 47.7867 96.7113 46.96C98.2579 46.1067 99.5913 45 100.711 43.64C101.031 43.2667 101.391 43.08 101.791 43.08ZM91.7113 37.28C90.7246 37.28 89.8846 37.8533 89.1913 39C88.5246 40.1467 88.1913 41.5333 88.1913 43.16V43.24C89.7646 42.8667 91.0046 42.3067 91.9113 41.56C92.8179 40.8133 93.2713 39.9467 93.2713 38.96C93.2713 38.4533 93.1246 38.0533 92.8313 37.76C92.5646 37.44 92.1913 37.28 91.7113 37.28ZM111.214 46.36C111.508 46.0933 111.801 45.96 112.094 45.96C112.414 45.96 112.668 46.1467 112.854 46.52C113.068 46.8667 113.174 47.2933 113.174 47.8C113.174 48.92 112.774 49.8133 111.974 50.48C110.588 51.6267 109.014 52.2 107.254 52.2C104.721 52.2 102.868 51.1467 101.694 49.04C100.521 46.9067 99.9344 44.1333 99.9344 40.72C99.9344 37.4667 100.348 33.76 101.174 29.6C102.028 25.44 103.268 21.8667 104.894 18.88C106.548 15.8933 108.508 14.4 110.774 14.4C112.054 14.4 113.054 15 113.774 16.2C114.521 17.3733 114.894 19.0667 114.894 21.28C114.894 24.4533 114.014 28.1333 112.254 32.32C110.521 36.5067 108.148 40.64 105.134 44.72C105.321 45.8133 105.654 46.6 106.134 47.08C106.614 47.56 107.268 47.8 108.094 47.8C108.548 47.8 109.054 47.6667 109.614 47.4C110.201 47.1333 110.734 46.7867 111.214 46.36ZM109.894 18.36C109.281 18.36 108.588 19.4667 107.814 21.68C107.041 23.8933 106.361 26.64 105.774 29.92C105.188 33.2 104.868 36.3467 104.814 39.36C106.708 36.24 108.214 33.12 109.334 30C110.454 26.8533 111.014 23.9867 111.014 21.4C111.014 19.3733 110.641 18.36 109.894 18.36Z" fill="#32BB78"/>
<path d="M118 19.5001H133" stroke="black" stroke-width="4"/>
<path d="M125.5 12.0001V27.0001" stroke="black" stroke-width="4"/>
</svg>
